# xmcd CD database file
#
# Track frame offsets:
#	150
#	49501
#	83994
#	141948
#	171607
#	213961
#	256784
#	292120
#
# Disc length: 4443 seconds
#
# Revision: 0
# Processed by: cddbd v1.5.1PL2 Copyright (c) Steve Scherf et al.
# Submitted via: CDex 1.51
#
DISCID=77115908
DTITLE=Juan Cruz de Urquiza - De Este Lado
DYEAR=2005
DGENRE=Jazz
TTITLE0=Miúla
TTITLE1=Aparente
TTITLE2=Idea 3
TTITLE3=Mensajero
TTITLE4=Detrás del Instinto
TTITLE5=Con Brasil Adentro - Fuga X
TTITLE6=Promesas sobre el Bidet
TTITLE7=De Este Lado 
EXTD=YEAR: 2005
EXTT0=
EXTT1=
EXTT2=
EXTT3=
EXTT4=
EXTT5=
EXTT6=
EXTT7=
PLAYORDER=
